<mxfile host="app.diagrams.net" modified="2021-06-04T08:19:35.312Z" agent="5.0 (Windows NT 10.0; Win64; x64) AppleWebKit/537.36 (KHTML, like Gecko) Chrome/91.0.4472.77 Safari/537.36 Edg/91.0.864.37" etag="B6QOlGlq2aAqK4GxiS55" version="14.7.0" type="github">
  <diagram id="JQvHnRoUy6vti3rr_0Gv" name="Page-1">
    <mxGraphModel dx="1422" dy="794" grid="1" gridSize="10" guides="1" tooltips="1" connect="1" arrows="1" fold="1" page="1" pageScale="1" pageWidth="827" pageHeight="1169" math="0" shadow="0">
      <root>
        <mxCell id="0" />
        <mxCell id="1" parent="0" />
        <mxCell id="HxVFQJg6L_kx-dsJN8oU-5" style="edgeStyle=orthogonalEdgeStyle;rounded=0;orthogonalLoop=1;jettySize=auto;html=1;exitX=1;exitY=0.5;exitDx=0;exitDy=0;entryX=0;entryY=0.5;entryDx=0;entryDy=0;" edge="1" parent="1" source="HxVFQJg6L_kx-dsJN8oU-1" target="HxVFQJg6L_kx-dsJN8oU-2">
          <mxGeometry relative="1" as="geometry" />
        </mxCell>
        <mxCell id="HxVFQJg6L_kx-dsJN8oU-1" value="OSC" style="rounded=1;whiteSpace=wrap;html=1;" vertex="1" parent="1">
          <mxGeometry x="210" y="340" width="120" height="60" as="geometry" />
        </mxCell>
        <mxCell id="HxVFQJg6L_kx-dsJN8oU-2" value="fir" style="rounded=1;whiteSpace=wrap;html=1;" vertex="1" parent="1">
          <mxGeometry x="470" y="340" width="120" height="60" as="geometry" />
        </mxCell>
        <mxCell id="HxVFQJg6L_kx-dsJN8oU-8" value="产生各种频率sine" style="shape=callout;whiteSpace=wrap;html=1;perimeter=calloutPerimeter;" vertex="1" parent="1">
          <mxGeometry x="210" y="260" width="120" height="80" as="geometry" />
        </mxCell>
        <mxCell id="HxVFQJg6L_kx-dsJN8oU-9" value="hilbert滤波器" style="shape=callout;whiteSpace=wrap;html=1;perimeter=calloutPerimeter;" vertex="1" parent="1">
          <mxGeometry x="470" y="250" width="120" height="80" as="geometry" />
        </mxCell>
      </root>
    </mxGraphModel>
  </diagram>
</mxfile>
